<svg xml:space="preserve" style="enable-background:new 0 0 1080 1080;" viewBox="0 0 1080 1080" y="0px" x="0px" xmlns:xlink="http://www.w3.org/1999/xlink" xmlns="http://www.w3.org/2000/svg" id="Layer_1" version="1.1">
<style type="text/css">
	.st0{fill:#FFFFFF;}
	.st1{display:none;}
	.st2{display:inline;}
	.st3{fill:#FFFFFF;stroke:#050505;stroke-width:4;stroke-miterlimit:10;}
</style>
<g>
	<g>
		<path d="M332.5,581c-4.9-18.4-7.3-37.5-7.3-56.8c0-33.3,7.2-65.3,21.4-95.1l11.3,5.4c-13.4,28.1-20.1,58.3-20.1,89.7
			c0,18.2,2.3,36.2,6.9,53.6L332.5,581z" class="st0"></path>
	</g>
	<g>
		<path d="M760.4,584.1l-12-3.4c5.1-18.3,7.7-37.3,7.7-56.5c0-29.8-6.1-58.6-18.3-85.6l11.4-5.1
			c12.8,28.6,19.4,59.1,19.4,90.8C768.6,544.6,765.8,564.7,760.4,584.1z" class="st0"></path>
	</g>
	<g>
		<path d="M728.6,444.2c-9.6,0-18.9-5.1-25.9-14.8l-2.9-3.7c-34.5-51.9-92.3-82.9-154.6-82.9
			c-60.8,0-117.2,30.6-154.9,83.9l-0.2,0.3l-2.9,3.6c-10.5,13.6-26.6,17-40,8.4c-13.6-8.7-17.6-26.8-8.9-40.4l1.6-2.5
			c45.3-70.1,122-111.9,205.3-111.9c83.9,0,160.9,42.3,206,113.1l2.7,4c7.6,14.2,2.1,32-12.1,39.5
			C737.5,443.1,733.1,444.2,728.6,444.2z M710.1,418.6l2.6,3.3c6.7,9.2,15.3,12.1,23.3,7.9c8.1-4.3,11.2-14.3,7.1-22.4l-2.2-3.3
			c-42.9-67.3-116-107.4-195.6-107.4c-79,0-151.8,39.7-194.8,106.2l-1.6,2.5c-5,7.8-2.7,18.2,5.1,23.2c8,5.1,16.8,3,23.4-5.6
			l2.8-3.6c40-56.6,100.1-89,165-89C611.6,330.4,673.2,363.3,710.1,418.6z" class="st0"></path>
	</g>
	<g>
		<g>
			<g>
				<path d="M642.8,752.6c-5.1,0-10.1-1.2-14.8-3.7l-20.3-10.7c-16.3-8.6-23-29.9-14.9-47.4l66.9-144.8
					c4.1-8.9,11.3-15.4,20.1-18.5c8.3-2.8,17.2-2.1,25,2l20.3,10.7c16.3,8.6,23,29.8,14.9,47.4l-66.9,144.8
					c-4.1,8.9-11.3,15.4-20.1,18.5C649.7,752.1,646.2,752.6,642.8,752.6z M613.5,727.2l20.3,10.7c4.7,2.5,10.1,2.9,15.2,1.2
					c5.6-1.9,10.1-6.1,12.8-11.9l66.9-144.8c5.3-11.6,1.1-25.5-9.4-31.1l-20.3-10.7c-4.7-2.5-10.1-2.9-15.2-1.2
					c-5.6,1.9-10.1,6.1-12.8,11.9l-66.9,144.8C598.7,707.7,603,721.6,613.5,727.2L613.5,727.2z" class="st0"></path>
			</g>
			<g>
				<path d="M685.4,762.1c-4.6,0-9.1-1.1-13.2-3.2l-20-10.8l6-11l19.9,10.8c5,2.6,10,1.8,13.3,0.7
					c7.1-2.4,13.3-8.5,17-16.6l50.5-109.3c6.6-14.2,3.3-30.8-7-36.3l-18.4-9.8l5.9-11l18.4,9.8c16.3,8.6,21.9,32.2,12.5,52.6
					l-50.5,109.3c-5.2,11.3-14.1,19.7-24.4,23.2C692.1,761.6,688.7,762.1,685.4,762.1z" class="st0"></path>
			</g>
		</g>
		<g>
			
				<ellipse ry="7.5" rx="7.5" cy="654.3" cx="724.8" class="st0" transform="matrix(7.406015e-02 -0.9973 0.9973 7.406015e-02 18.673 1328.672)"></ellipse>
		</g>
		<g>
			
				<rect height="12.5" width="78.1" class="st0" transform="matrix(0.4052 -0.9142 0.9142 0.4052 -122.8024 1044.4248)" y="610.3" x="702.3"></rect>
		</g>
		<g>
			
				<rect height="12.5" width="212.3" class="st0" transform="matrix(0.4253 -0.9051 0.9051 0.4253 -191.6525 984.1006)" y="636.7" x="572.9"></rect>
		</g>
	</g>
	<g>
		<g>
			<g>
				<path d="M451.4,752.6c-3.5,0-6.9-0.6-10.3-1.7c-8.9-3-16-9.6-20.1-18.5l-66.3-145.1c-8-17.6-1.3-38.8,15.1-47.3
					l20.4-10.6c7.8-4.1,16.7-4.8,25-1.9c8.9,3,16,9.6,20.1,18.5L501.5,691c8,17.6,1.3,38.8-15.1,47.3L466,749
					C461.4,751.4,456.4,752.6,451.4,752.6z M404.8,538.2c-3.1,0-6.1,0.7-8.9,2.2l-20.4,10.6c-10.6,5.5-14.8,19.5-9.5,31.1
					l66.3,145.1c2.6,5.8,7.2,10,12.8,11.9c5.1,1.7,10.4,1.3,15.2-1.2l20.4-10.6c10.6-5.5,14.8-19.5,9.5-31.1l-66.3-145.1
					c-2.6-5.8-7.2-10-12.8-11.9C409,538.6,406.9,538.2,404.8,538.2z" class="st0"></path>
			</g>
			<g>
				<path d="M408.7,762c-3.3,0-6.7-0.6-10.1-1.7c-10.3-3.5-19.1-12-24.3-23.3l-50.1-109.5c-9.3-20.4-3.6-44,12.7-52.5
					l18.4-9.7l5.8,11l-18.4,9.7c-10.4,5.4-13.7,22.1-7.2,36.3l50.1,109.5c3.7,8.2,9.9,14.3,17,16.7c3.3,1.1,8.3,1.9,13.3-0.7
					l19.9-10.7l5.9,11l-19.9,10.7C417.7,760.9,413.3,762,408.7,762z" class="st0"></path>
			</g>
		</g>
		<g>
			
				<ellipse ry="7.5" rx="7.5" cy="654" cx="369.5" class="st0" transform="matrix(0.9975 -7.059615e-02 7.059615e-02 0.9975 -45.2473 27.7201)"></ellipse>
		</g>
		<g>
			
				<rect height="78.1" width="12.5" class="st0" transform="matrix(0.9157 -0.402 0.402 0.9157 -217.9132 193.9573)" y="577.2" x="347"></rect>
		</g>
		<g>
			
				<rect height="212.3" width="12.5" class="st0" transform="matrix(0.9065 -0.4222 0.4222 0.9065 -232.5805 235.4835)" y="536.7" x="409.1"></rect>
		</g>
	</g>
	<g>
		
			<rect height="12.5" width="43.4" class="st0" transform="matrix(0.7914 -0.6113 0.6113 0.7914 -89.9071 516.4305)" y="383.7" x="690.1"></rect>
	</g>
	<g>
		
			<rect height="43.4" width="12.5" class="st0" transform="matrix(0.6114 -0.7913 0.7913 0.6114 -159.406 455.2896)" y="368.3" x="377.6"></rect>
	</g>
</g>
<g class="st1">
	<g class="st2">
		<path d="M904.1,714.3H199.6c-24.1,0-43.7-19.6-43.7-43.7V422.2c0-24.1,19.6-43.7,43.7-43.7h704.5
			c24.1,0,43.7,19.6,43.7,43.7v248.4C947.8,694.7,928.2,714.3,904.1,714.3z M199.6,390.9c-17.2,0-31.2,14-31.2,31.2v248.4
			c0,17.2,14,31.2,31.2,31.2h704.5c17.2,0,31.2-14,31.2-31.2V422.2c0-17.2-14-31.2-31.2-31.2H199.6z" class="st0"></path>
	</g>
	<g class="st2">
		<path d="M233.7,472h-24.5c-9.5,0-17.2-7.7-17.2-17.2v-24.5c0-9.5,7.7-17.2,17.2-17.2h24.5c9.5,0,17.2,7.7,17.2,17.2
			v24.5C250.9,464.3,243.2,472,233.7,472z M209.2,425.7c-2.6,0-4.7,2.1-4.7,4.7v24.5c0,2.6,2.1,4.7,4.7,4.7h24.5
			c2.6,0,4.7-2.1,4.7-4.7v-24.5c0-2.6-2.1-4.7-4.7-4.7H209.2z" class="st0"></path>
	</g>
	<g class="st2">
		<path d="M894.7,472h-24.5c-9.5,0-17.2-7.7-17.2-17.2v-24.5c0-9.5,7.7-17.2,17.2-17.2h24.5c9.5,0,17.2,7.7,17.2,17.2
			v24.5C911.9,464.3,904.1,472,894.7,472z M870.2,425.7c-2.6,0-4.7,2.1-4.7,4.7v24.5c0,2.6,2.1,4.7,4.7,4.7h24.5
			c2.6,0,4.7-2.1,4.7-4.7v-24.5c0-2.6-2.1-4.7-4.7-4.7H870.2z" class="st0"></path>
	</g>
	<g class="st2">
		<path d="M233.7,675.8h-24.5c-9.5,0-17.2-7.7-17.2-17.2v-24.5c0-9.5,7.7-17.2,17.2-17.2h24.5c9.5,0,17.2,7.7,17.2,17.2
			v24.5C250.9,668.1,243.2,675.8,233.7,675.8z M209.2,629.4c-2.6,0-4.7,2.1-4.7,4.7v24.5c0,2.6,2.1,4.7,4.7,4.7h24.5
			c2.6,0,4.7-2.1,4.7-4.7v-24.5c0-2.6-2.1-4.7-4.7-4.7H209.2z" class="st0"></path>
	</g>
	<g class="st2">
		<path d="M299.3,675.8h-24.5c-9.5,0-17.2-7.7-17.2-17.2v-24.5c0-9.5,7.7-17.2,17.2-17.2h24.5c9.5,0,17.2,7.7,17.2,17.2
			v24.5C316.4,668.1,308.7,675.8,299.3,675.8z M274.8,629.4c-2.6,0-4.7,2.1-4.7,4.7v24.5c0,2.6,2.1,4.7,4.7,4.7h24.5
			c2.6,0,4.7-2.1,4.7-4.7v-24.5c0-2.6-2.1-4.7-4.7-4.7H274.8z" class="st0"></path>
	</g>
	<g class="st2">
		<path d="M370.6,608.9h-24.5c-9.5,0-17.2-7.7-17.2-17.2v-24.5c0-9.5,7.7-17.2,17.2-17.2h24.5c9.5,0,17.2,7.7,17.2,17.2
			v24.5C387.7,601.2,380,608.9,370.6,608.9z M346.1,562.6c-2.6,0-4.7,2.1-4.7,4.7v24.5c0,2.6,2.1,4.7,4.7,4.7h24.5
			c2.6,0,4.7-2.1,4.7-4.7v-24.5c0-2.6-2.1-4.7-4.7-4.7H346.1z" class="st0"></path>
	</g>
	<g class="st2">
		<path d="M436.9,608.9h-24.5c-9.5,0-17.2-7.7-17.2-17.2v-24.5c0-9.5,7.7-17.2,17.2-17.2h24.5c9.5,0,17.2,7.7,17.2,17.2
			v24.5C454.1,601.2,446.4,608.9,436.9,608.9z M412.5,562.6c-2.6,0-4.7,2.1-4.7,4.7v24.5c0,2.6,2.1,4.7,4.7,4.7h24.5
			c2.6,0,4.7-2.1,4.7-4.7v-24.5c0-2.6-2.1-4.7-4.7-4.7H412.5z" class="st0"></path>
	</g>
	<g class="st2">
		<path d="M503,608.9h-24.5c-9.5,0-17.2-7.7-17.2-17.2v-24.5c0-9.5,7.7-17.2,17.2-17.2H503c9.5,0,17.2,7.7,17.2,17.2
			v24.5C520.2,601.2,512.5,608.9,503,608.9z M478.5,562.6c-2.6,0-4.7,2.1-4.7,4.7v24.5c0,2.6,2.1,4.7,4.7,4.7H503
			c2.6,0,4.7-2.1,4.7-4.7v-24.5c0-2.6-2.1-4.7-4.7-4.7H478.5z" class="st0"></path>
	</g>
	<g class="st2">
		<path d="M569.6,608.9h-24.5c-9.5,0-17.2-7.7-17.2-17.2v-24.5c0-9.5,7.7-17.2,17.2-17.2h24.5c9.5,0,17.2,7.7,17.2,17.2
			v24.5C586.8,601.2,579.1,608.9,569.6,608.9z M545.2,562.6c-2.6,0-4.7,2.1-4.7,4.7v24.5c0,2.6,2.1,4.7,4.7,4.7h24.5
			c2.6,0,4.7-2.1,4.7-4.7v-24.5c0-2.6-2.1-4.7-4.7-4.7H545.2z" class="st0"></path>
	</g>
	<g class="st2">
		<path d="M636.3,608.9h-24.5c-9.5,0-17.2-7.7-17.2-17.2v-24.5c0-9.5,7.7-17.2,17.2-17.2h24.5c9.5,0,17.2,7.7,17.2,17.2
			v24.5C653.4,601.2,645.7,608.9,636.3,608.9z M611.8,562.6c-2.6,0-4.7,2.1-4.7,4.7v24.5c0,2.6,2.1,4.7,4.7,4.7h24.5
			c2.6,0,4.7-2.1,4.7-4.7v-24.5c0-2.6-2.1-4.7-4.7-4.7H611.8z" class="st0"></path>
	</g>
	<g class="st2">
		<path d="M702.9,608.9h-24.5c-9.5,0-17.2-7.7-17.2-17.2v-24.5c0-9.5,7.7-17.2,17.2-17.2h24.5c9.5,0,17.2,7.7,17.2,17.2
			v24.5C720.1,601.2,712.4,608.9,702.9,608.9z M678.4,562.6c-2.6,0-4.7,2.1-4.7,4.7v24.5c0,2.6,2.1,4.7,4.7,4.7h24.5
			c2.6,0,4.7-2.1,4.7-4.7v-24.5c0-2.6-2.1-4.7-4.7-4.7H678.4z" class="st0"></path>
	</g>
	<g class="st2">
		<path d="M326.8,537.9h-24.5c-9.5,0-17.2-7.7-17.2-17.2v-24.5c0-9.5,7.7-17.2,17.2-17.2h24.5c9.5,0,17.2,7.7,17.2,17.2
			v24.5C344,530.1,336.3,537.9,326.8,537.9z M302.4,491.5c-2.6,0-4.7,2.1-4.7,4.7v24.5c0,2.6,2.1,4.7,4.7,4.7h24.5
			c2.6,0,4.7-2.1,4.7-4.7v-24.5c0-2.6-2.1-4.7-4.7-4.7H302.4z" class="st0"></path>
	</g>
	<g class="st2">
		<path d="M393.2,537.9h-24.5c-9.5,0-17.2-7.7-17.2-17.2v-24.5c0-9.5,7.7-17.2,17.2-17.2h24.5c9.5,0,17.2,7.7,17.2,17.2
			v24.5C410.4,530.1,402.7,537.9,393.2,537.9z M368.7,491.5c-2.6,0-4.7,2.1-4.7,4.7v24.5c0,2.6,2.1,4.7,4.7,4.7h24.5
			c2.6,0,4.7-2.1,4.7-4.7v-24.5c0-2.6-2.1-4.7-4.7-4.7H368.7z" class="st0"></path>
	</g>
	<g class="st2">
		<path d="M459.3,537.9h-24.5c-9.5,0-17.2-7.7-17.2-17.2v-24.5c0-9.5,7.7-17.2,17.2-17.2h24.5c9.5,0,17.2,7.7,17.2,17.2
			v24.5C476.5,530.1,468.8,537.9,459.3,537.9z M434.8,491.5c-2.6,0-4.7,2.1-4.7,4.7v24.5c0,2.6,2.1,4.7,4.7,4.7h24.5
			c2.6,0,4.7-2.1,4.7-4.7v-24.5c0-2.6-2.1-4.7-4.7-4.7H434.8z" class="st0"></path>
	</g>
	<g class="st2">
		<path d="M525.9,537.9h-24.5c-9.5,0-17.2-7.7-17.2-17.2v-24.5c0-9.5,7.7-17.2,17.2-17.2h24.5c9.5,0,17.2,7.7,17.2,17.2
			v24.5C543.1,530.1,535.4,537.9,525.9,537.9z M501.5,491.5c-2.6,0-4.7,2.1-4.7,4.7v24.5c0,2.6,2.1,4.7,4.7,4.7h24.5
			c2.6,0,4.7-2.1,4.7-4.7v-24.5c0-2.6-2.1-4.7-4.7-4.7H501.5z" class="st0"></path>
	</g>
	<g class="st2">
		<path d="M592.5,537.9h-24.5c-9.5,0-17.2-7.7-17.2-17.2v-24.5c0-9.5,7.7-17.2,17.2-17.2h24.5c9.5,0,17.2,7.7,17.2,17.2
			v24.5C609.7,530.1,602,537.9,592.5,537.9z M568.1,491.5c-2.6,0-4.7,2.1-4.7,4.7v24.5c0,2.6,2.1,4.7,4.7,4.7h24.5
			c2.6,0,4.7-2.1,4.7-4.7v-24.5c0-2.6-2.1-4.7-4.7-4.7H568.1z" class="st0"></path>
	</g>
	<g class="st2">
		<path d="M304.7,469.7h-24.5c-9.5,0-17.2-7.7-17.2-17.2V428c0-9.5,7.7-17.2,17.2-17.2h24.5c9.5,0,17.2,7.7,17.2,17.2
			v24.5C321.9,462,314.2,469.7,304.7,469.7z M280.3,423.3c-2.6,0-4.7,2.1-4.7,4.7v24.5c0,2.6,2.1,4.7,4.7,4.7h24.5
			c2.6,0,4.7-2.1,4.7-4.7V428c0-2.6-2.1-4.7-4.7-4.7H280.3z" class="st0"></path>
	</g>
	<g class="st2">
		<path d="M371.1,469.7h-24.5c-9.5,0-17.2-7.7-17.2-17.2V428c0-9.5,7.7-17.2,17.2-17.2h24.5c9.5,0,17.2,7.7,17.2,17.2
			v24.5C388.3,462,380.6,469.7,371.1,469.7z M346.6,423.3c-2.6,0-4.7,2.1-4.7,4.7v24.5c0,2.6,2.1,4.7,4.7,4.7h24.5
			c2.6,0,4.7-2.1,4.7-4.7V428c0-2.6-2.1-4.7-4.7-4.7H346.6z" class="st0"></path>
	</g>
	<g class="st2">
		<path d="M437.2,469.7h-24.5c-9.5,0-17.2-7.7-17.2-17.2V428c0-9.5,7.7-17.2,17.2-17.2h24.5c9.5,0,17.2,7.7,17.2,17.2
			v24.5C454.4,462,446.7,469.7,437.2,469.7z M412.7,423.3c-2.6,0-4.7,2.1-4.7,4.7v24.5c0,2.6,2.1,4.7,4.7,4.7h24.5
			c2.6,0,4.7-2.1,4.7-4.7V428c0-2.6-2.1-4.7-4.7-4.7H412.7z" class="st0"></path>
	</g>
	<g class="st2">
		<path d="M503.8,469.7h-24.5c-9.5,0-17.2-7.7-17.2-17.2V428c0-9.5,7.7-17.2,17.2-17.2h24.5c9.5,0,17.2,7.7,17.2,17.2
			v24.5C521,462,513.3,469.7,503.8,469.7z M479.3,423.3c-2.6,0-4.7,2.1-4.7,4.7v24.5c0,2.6,2.1,4.7,4.7,4.7h24.5
			c2.6,0,4.7-2.1,4.7-4.7V428c0-2.6-2.1-4.7-4.7-4.7H479.3z" class="st0"></path>
	</g>
	<g class="st2">
		<path d="M570.4,469.7H546c-9.5,0-17.2-7.7-17.2-17.2V428c0-9.5,7.7-17.2,17.2-17.2h24.5c9.5,0,17.2,7.7,17.2,17.2
			v24.5C587.6,462,579.9,469.7,570.4,469.7z M546,423.3c-2.6,0-4.7,2.1-4.7,4.7v24.5c0,2.6,2.1,4.7,4.7,4.7h24.5
			c2.6,0,4.7-2.1,4.7-4.7V428c0-2.6-2.1-4.7-4.7-4.7H546z" class="st0"></path>
	</g>
	<g class="st2">
		<path d="M640.2,469.7h-24.5c-9.5,0-17.2-7.7-17.2-17.2V428c0-9.5,7.7-17.2,17.2-17.2h24.5c9.5,0,17.2,7.7,17.2,17.2
			v24.5C657.4,462,649.6,469.7,640.2,469.7z M615.7,423.3c-2.6,0-4.7,2.1-4.7,4.7v24.5c0,2.6,2.1,4.7,4.7,4.7h24.5
			c2.6,0,4.7-2.1,4.7-4.7V428c0-2.6-2.1-4.7-4.7-4.7H615.7z" class="st0"></path>
	</g>
	<g class="st2">
		<path d="M706.8,469.7h-24.5c-9.5,0-17.2-7.7-17.2-17.2V428c0-9.5,7.7-17.2,17.2-17.2h24.5c9.5,0,17.2,7.7,17.2,17.2
			v24.5C724,462,716.3,469.7,706.8,469.7z M682.3,423.3c-2.6,0-4.7,2.1-4.7,4.7v24.5c0,2.6,2.1,4.7,4.7,4.7h24.5
			c2.6,0,4.7-2.1,4.7-4.7V428c0-2.6-2.1-4.7-4.7-4.7H682.3z" class="st0"></path>
	</g>
	<g class="st2">
		<path d="M659.2,537.9h-24.5c-9.5,0-17.2-7.7-17.2-17.2v-24.5c0-9.5,7.7-17.2,17.2-17.2h24.5c9.5,0,17.2,7.7,17.2,17.2
			v24.5C676.3,530.1,668.6,537.9,659.2,537.9z M634.7,491.5c-2.6,0-4.7,2.1-4.7,4.7v24.5c0,2.6,2.1,4.7,4.7,4.7h24.5
			c2.6,0,4.7-2.1,4.7-4.7v-24.5c0-2.6-2.1-4.7-4.7-4.7H634.7z" class="st0"></path>
	</g>
	<g class="st2">
		<path d="M726,537.9h-24.5c-9.5,0-17.2-7.7-17.2-17.2v-24.5c0-9.5,7.7-17.2,17.2-17.2H726c9.5,0,17.2,7.7,17.2,17.2
			v24.5C743.2,530.1,735.5,537.9,726,537.9z M701.6,491.5c-2.6,0-4.7,2.1-4.7,4.7v24.5c0,2.6,2.1,4.7,4.7,4.7H726
			c2.6,0,4.7-2.1,4.7-4.7v-24.5c0-2.6-2.1-4.7-4.7-4.7H701.6z" class="st0"></path>
	</g>
	<g class="st2">
		<path d="M792.7,537.9h-24.5c-9.5,0-17.2-7.7-17.2-17.2v-24.5c0-9.5,7.7-17.2,17.2-17.2h24.5c9.5,0,17.2,7.7,17.2,17.2
			v24.5C809.8,530.1,802.1,537.9,792.7,537.9z M768.2,491.5c-2.6,0-4.7,2.1-4.7,4.7v24.5c0,2.6,2.1,4.7,4.7,4.7h24.5
			c2.6,0,4.7-2.1,4.7-4.7v-24.5c0-2.6-2.1-4.7-4.7-4.7H768.2z" class="st0"></path>
	</g>
	<g class="st2">
		<path d="M823.9,675.8h-24.5c-9.5,0-17.2-7.7-17.2-17.2v-24.5c0-9.5,7.7-17.2,17.2-17.2h24.5c9.5,0,17.2,7.7,17.2,17.2
			v24.5C841.1,668.1,833.4,675.8,823.9,675.8z M799.4,629.4c-2.6,0-4.7,2.1-4.7,4.7v24.5c0,2.6,2.1,4.7,4.7,4.7h24.5
			c2.6,0,4.7-2.1,4.7-4.7v-24.5c0-2.6-2.1-4.7-4.7-4.7H799.4z" class="st0"></path>
	</g>
	<g class="st2">
		<path d="M889.5,675.8H865c-9.5,0-17.2-7.7-17.2-17.2v-24.5c0-9.5,7.7-17.2,17.2-17.2h24.5c9.5,0,17.2,7.7,17.2,17.2
			v24.5C906.6,668.1,898.9,675.8,889.5,675.8z M865,629.4c-2.6,0-4.7,2.1-4.7,4.7v24.5c0,2.6,2.1,4.7,4.7,4.7h24.5
			c2.6,0,4.7-2.1,4.7-4.7v-24.5c0-2.6-2.1-4.7-4.7-4.7H865z" class="st0"></path>
	</g>
	<g class="st2">
		<path d="M889.5,607.3H865c-9.5,0-17.2-7.7-17.2-17.2v-24.5c0-9.5,7.7-17.2,17.2-17.2h24.5c9.5,0,17.2,7.7,17.2,17.2
			v24.5C906.6,599.6,898.9,607.3,889.5,607.3z M865,561c-2.6,0-4.7,2.1-4.7,4.7v24.5c0,2.6,2.1,4.7,4.7,4.7h24.5
			c2.6,0,4.7-2.1,4.7-4.7v-24.5c0-2.6-2.1-4.7-4.7-4.7H865z" class="st0"></path>
	</g>
	<g class="st2">
		<path d="M748.3,675.8H343.5c-9.5,0-17.2-7.7-17.2-17.2v-24.5c0-9.5,7.7-17.2,17.2-17.2h404.8
			c9.5,0,17.2,7.7,17.2,17.2v24.5C765.5,668.1,757.8,675.8,748.3,675.8z M343.5,629.4c-2.6,0-4.7,2.1-4.7,4.7v24.5
			c0,2.6,2.1,4.7,4.7,4.7h404.8c2.6,0,4.7-2.1,4.7-4.7v-24.5c0-2.6-2.1-4.7-4.7-4.7H343.5z" class="st0"></path>
	</g>
	<g class="st2">
		<path d="M258,540.7h-48.8c-9.5,0-17.2-7.7-17.2-17.2v-24.5c0-9.5,7.7-17.2,17.2-17.2H258c9.5,0,17.2,7.7,17.2,17.2
			v24.5C275.2,533,267.5,540.7,258,540.7z M209.2,494.4c-2.6,0-4.7,2.1-4.7,4.7v24.5c0,2.6,2.1,4.7,4.7,4.7H258
			c2.6,0,4.7-2.1,4.7-4.7v-24.5c0-2.6-2.1-4.7-4.7-4.7H209.2z" class="st0"></path>
	</g>
	<g class="st2">
		<path d="M303.2,606.8h-94c-9.5,0-17.2-7.7-17.2-17.2v-24.5c0-9.5,7.7-17.2,17.2-17.2h94c9.5,0,17.2,7.7,17.2,17.2
			v24.5C320.4,599.1,312.7,606.8,303.2,606.8z M209.2,560.5c-2.6,0-4.7,2.1-4.7,4.7v24.5c0,2.6,2.1,4.7,4.7,4.7h94
			c2.6,0,4.7-2.1,4.7-4.7v-24.5c0-2.6-2.1-4.7-4.7-4.7H209.2z" class="st0"></path>
	</g>
	<g class="st2">
		<path d="M823.9,606.8h-76.1c-9.5,0-17.2-7.7-17.2-17.2v-24.5c0-9.5,7.7-17.2,17.2-17.2h76.1c9.5,0,17.2,7.7,17.2,17.2
			v24.5C841.1,599.1,833.4,606.8,823.9,606.8z M747.7,560.5c-2.6,0-4.7,2.1-4.7,4.7v24.5c0,2.6,2.1,4.7,4.7,4.7h76.1
			c2.6,0,4.7-2.1,4.7-4.7v-24.5c0-2.6-2.1-4.7-4.7-4.7H747.7z" class="st0"></path>
	</g>
	<g class="st2">
		<path d="M894.7,536h-56.6c-9.5,0-17.2-7.7-17.2-17.2v-24.5c0-9.5,7.7-17.2,17.2-17.2h56.6c9.5,0,17.2,7.7,17.2,17.2
			v24.5C911.9,528.3,904.2,536,894.7,536z M838.1,489.7c-2.6,0-4.7,2.1-4.7,4.7v24.5c0,2.6,2.1,4.7,4.7,4.7h56.6
			c2.6,0,4.7-2.1,4.7-4.7v-24.5c0-2.6-2.1-4.7-4.7-4.7H838.1z" class="st0"></path>
	</g>
	<g class="st2">
		<path d="M825.2,470.5H749c-9.5,0-17.2-7.7-17.2-17.2v-24.5c0-9.5,7.7-17.2,17.2-17.2h76.1c9.5,0,17.2,7.7,17.2,17.2
			v24.5C842.4,462.7,834.7,470.5,825.2,470.5z M749,424.1c-2.6,0-4.7,2.1-4.7,4.7v24.5c0,2.6,2.1,4.7,4.7,4.7h76.1
			c2.6,0,4.7-2.1,4.7-4.7v-24.5c0-2.6-2.1-4.7-4.7-4.7H749z" class="st0"></path>
	</g>
</g>
<g class="st1">
	<g class="st2">
		<path d="M553.8,783.9l-3.7-0.1c-43.8-3.8-77.3-21.9-99.5-53.9c-41.5-59.7-29.5-148.7-24.3-167.5
			c8.4-30.4,7.7-71.7,7.7-74.6c-4.5-57.1-2.3-143.7-2.3-144.6l0.1-2l1.2-1.6c32.7-42.8,94.7-51.2,119.8-52.8l0.4,0l2.7,0.2
			c24.7,1.9,85.6,10.7,117.6,52.7l1.2,1.6l0.1,2c0,0.9,2.2,87.5-2.3,144.6c-0.1,2.9-0.7,44.2,7.7,74.6
			c6.9,24.9,13.3,115.6-28.2,172.3c-22.6,30.9-55.6,47.5-98,49.1L553.8,783.9z M550.9,771.3l2.7,0.1c38.3-1.6,68-16.4,88.2-44
			c38.8-53,32.7-138.2,26.2-161.6c-9.2-33.2-8.2-76.6-8.1-78.4l0-0.3c4-51.6,2.6-128,2.3-141.4C633,309,577.6,301.1,555,299.4
			l-1.8-0.1c-18.5,1.2-78.4,8.2-109,46.4c-0.3,13.5-1.8,89.9,2.3,141.4l0,0.3c0,1.8,1,45.2-8.1,78.4c-4.9,17.7-16.2,101.3,22.5,157
			C480.8,751.5,511.1,767.8,550.9,771.3z" class="st0"></path>
	</g>
	<g class="st2">
		<path d="M650.8,717.1c-16.9-55.9-7.6-171.6-4.4-197.2c3.1-25,16.7-135.3,16.7-135.3l12.4,1.5
			c0,0-13.5,110.4-16.7,135.3c-3.1,25.1-12.3,138.2,3.9,192.1L650.8,717.1z" class="st0"></path>
	</g>
	<g class="st2">
		<path d="M456.4,717.1l-12-3.6c16.3-53.8,7.1-167,3.9-192.1c-3.1-25-16.7-135.3-16.7-135.3l12.4-1.5
			c0,0,13.5,110.3,16.7,135.3C464,545.5,473.3,661.2,456.4,717.1z" class="st0"></path>
	</g>
	<g class="st2">
		<path d="M557.4,521.7c-18.7,0-33.8-14.7-33.8-32.8v-191h12.5v191c0,11.2,9.6,20.3,21.3,20.3s21.3-9.1,21.3-20.3v-191
			h12.5v191C591.2,507,576,521.7,557.4,521.7z" class="st0"></path>
	</g>
	<g class="st2">
		<path d="M556.9,501.3c-8.6,0-15.6-7-15.6-15.6v-18.7c0-8.6,7-15.6,15.6-15.6s15.6,7,15.6,15.6v18.7
			C572.5,494.2,565.5,501.3,556.9,501.3z M556.9,463.8c-1.7,0-3.1,1.4-3.1,3.1v18.7c0,1.7,1.4,3.1,3.1,3.1s3.1-1.4,3.1-3.1v-18.7
			C560,465.2,558.6,463.8,556.9,463.8z" class="st0"></path>
	</g>
	<g class="st2">
		<path d="M560.2,429.1h-6.6c-8.6,0-15.6-7-15.6-15.6v-57.2c0-8.6,7-15.6,15.6-15.6h6.6c8.6,0,15.6,7,15.6,15.6v57.2
			C575.8,422.1,568.8,429.1,560.2,429.1z M553.6,353.2c-1.7,0-3.1,1.4-3.1,3.1v57.2c0,1.7,1.4,3.1,3.1,3.1h6.6
			c1.7,0,3.1-1.4,3.1-3.1v-57.2c0-1.7-1.4-3.1-3.1-3.1H553.6z" class="st0"></path>
	</g>
</g>
<g class="st1">
	<g class="st2">
		<path d="M810.8,737.7H291.4c-24.1,0-43.7-19.6-43.7-43.7V375.2c0-24.1,19.6-43.7,43.7-43.7h519.4
			c24.1,0,43.7,19.6,43.7,43.7v318.7C854.5,718,834.9,737.7,810.8,737.7z M291.4,344c-17.2,0-31.2,14-31.2,31.2v318.7
			c0,17.2,14,31.2,31.2,31.2h519.4c17.2,0,31.2-14,31.2-31.2V375.2c0-17.2-14-31.2-31.2-31.2H291.4z" class="st0"></path>
	</g>
	<g class="st2">
		<g id="Logo_11_">
			<g>
				<path d="M777,646.6c-3.2,0-6.3,0.2-9.3,0.4c-8.1,0.6-16,2-23.9,4.1l6.9,7.9c5.3-1.2,10.6-2,15.8-2.4
					c-2.4,9.7-7.9,18.3-15.8,24.1v11.2c13.4-7.5,22.7-20.7,25.6-35.9C776.8,652.9,777,649.6,777,646.6z" class="st0"></path>
			</g>
			<g>
				<path d="M813.9,651.1c-7.9-2-15.8-3.4-23.9-4.1c-3-0.2-6.3-0.4-9.3-0.4c0,3.2,0.2,6.3,0.8,9.3
					c2.8,15.2,12.2,28.2,25.6,35.9v-11.2c-7.9-5.9-13.4-14.4-15.8-24.1c5.3,0.4,10.6,1.4,15.8,2.4L813.9,651.1z" class="st0"></path>
			</g>
			<g>
				<polygon points="774.6,692 783.1,682.3 783.1,672 774.6,672" class="st0"></polygon>
			</g>
		</g>
	</g>
</g>
<g class="st1">
	<g class="st2">
		<path d="M644.5,795H464.1c-14.3,0-25.9-11.6-25.9-25.9V303.3c0-14.3,11.6-25.9,25.9-25.9h180.4
			c14.3,0,25.9,11.6,25.9,25.9v465.8C670.4,783.4,658.8,795,644.5,795z M464.1,289.9c-7.4,0-13.4,6-13.4,13.4v465.8
			c0,7.4,6,13.4,13.4,13.4h180.4c7.4,0,13.4-6,13.4-13.4V303.3c0-7.4-6-13.4-13.4-13.4H464.1z" class="st0"></path>
	</g>
	<g class="st2">
		<path d="M511.1,813.5H475c-11,0-19.9-8.9-19.9-19.9h12.5c0,4.1,3.3,7.4,7.4,7.4h36.1c4.1,0,7.4-3.3,7.4-7.4H531
			C531,804.6,522.1,813.5,511.1,813.5z" class="st0"></path>
	</g>
	<g class="st2">
		<path d="M629.8,813.5h-36.1c-11,0-19.9-8.9-19.9-19.9h12.5c0,4.1,3.3,7.4,7.4,7.4h36.1c4.1,0,7.4-3.3,7.4-7.4h12.5
			C649.7,804.6,640.8,813.5,629.8,813.5z" class="st0"></path>
	</g>
	<g class="st2">
		<path d="M557.3,585.7c-29.2,0-52.9-23.7-52.9-52.9s23.7-52.9,52.9-52.9s52.9,23.7,52.9,52.9S586.4,585.7,557.3,585.7z
			 M557.3,492.4c-22.3,0-40.4,18.1-40.4,40.4c0,22.3,18.1,40.4,40.4,40.4c22.3,0,40.4-18.1,40.4-40.4
			C597.7,510.5,579.5,492.4,557.3,492.4z" class="st0"></path>
	</g>
	<g class="st2">
		<path d="M557.3,709c-29.2,0-52.9-23.7-52.9-52.9s23.7-52.9,52.9-52.9s52.9,23.7,52.9,52.9S586.4,709,557.3,709z
			 M557.3,615.8c-22.3,0-40.4,18.1-40.4,40.4s18.1,40.4,40.4,40.4c22.3,0,40.4-18.1,40.4-40.4S579.5,615.8,557.3,615.8z" class="st0"></path>
	</g>
	<g class="st2">
		<path d="M557.3,470.1c-29.2,0-52.9-23.7-52.9-52.9c0-29.2,23.7-52.9,52.9-52.9s52.9,23.7,52.9,52.9
			C610.2,446.4,586.4,470.1,557.3,470.1z M557.3,376.9c-22.3,0-40.4,18.1-40.4,40.4c0,22.3,18.1,40.4,40.4,40.4
			c22.3,0,40.4-18.1,40.4-40.4C597.7,395,579.5,376.9,557.3,376.9z" class="st0"></path>
	</g>
	<g class="st2">
		<g>
			
				<rect height="164.1" width="12.5" class="st0" transform="matrix(0.6698 -0.7426 0.7426 0.6698 -125.7933 551.2816)" y="335" x="550.7"></rect>
		</g>
		<g>
			
				<rect height="12.5" width="164.1" class="st0" transform="matrix(0.7425 -0.6698 0.6698 0.7425 -135.972 480.4008)" y="410.8" x="474.9"></rect>
		</g>
	</g>
	<g class="st2">
		<g>
			
				<rect height="164.1" width="12.5" class="st0" transform="matrix(0.6698 -0.7426 0.7426 0.6698 -214.4882 590.7366)" y="454.5" x="550.7"></rect>
		</g>
		<g>
			
				<rect height="12.5" width="164.1" class="st0" transform="matrix(0.7425 -0.6698 0.6698 0.7425 -215.9754 511.1526)" y="530.3" x="474.9"></rect>
		</g>
	</g>
	<g class="st2">
		<g>
			
				<rect height="164.1" width="12.5" class="st0" transform="matrix(0.6698 -0.7426 0.7426 0.6698 -304.3666 630.6961)" y="575.5" x="550.7"></rect>
		</g>
		<g>
			
				<rect height="12.5" width="164.1" class="st0" transform="matrix(0.7425 -0.6698 0.6698 0.7425 -297.0451 542.3143)" y="651.3" x="474.9"></rect>
		</g>
	</g>
	<g class="st2">
		<path d="M624.6,729.2H491.1V347.5h133.4V729.2z M503.6,716.7h108.4V360H503.6V716.7z" class="st0"></path>
	</g>
	<g class="st2">
		<rect height="12.5" width="219.6" class="st0" y="740.7" x="444.5"></rect>
	</g>
	<g class="st2">
		<rect height="12.5" width="219.6" class="st0" y="320.3" x="444.5"></rect>
	</g>
</g>
<g class="st1">
	<g class="st2">
		<path d="M689.1,533.1l-1.7-12.4c37.5-5.3,71.7-16.7,71.7-24c0-19.2-18.2-118.8-34.9-141.9
			c-13.7-18.9-77.1-37.7-100.4-43.3l2.9-12.1c9,2.2,88.7,22.1,107.6,48.2c19.6,27.1,37.2,131.2,37.2,149.2
			C771.6,519.1,713.9,529.6,689.1,533.1z" class="st0"></path>
	</g>
	<g class="st2">
		<path d="M568.3,765.8c-3.8,0-7.7,0-11.7-0.1c-3.4-0.1-6.2-2.9-6.1-6.4c0.1-3.4,2.9-6.1,6.2-6.1c0,0,0.1,0,0.1,0
			c81.4,1.7,112.3-14.7,119.8-19.7c0.3-26.7,2.3-219.1,4.8-272.4c2.8-57.5,17.6-63.1,23.9-62.8c3.4,0.2,6.1,3.1,5.9,6.5
			c-0.1,3.1-2.5,5.5-5.4,5.9c-1.2,0.8-9.8,7.7-11.9,50.9c-2.7,56.8-4.8,272.8-4.8,274.9l0,2.6l-1.9,1.8
			C686.1,742,660.6,765.8,568.3,765.8z M704.8,410.7C704.8,410.7,704.8,410.7,704.8,410.7C704.8,410.7,704.8,410.7,704.8,410.7z
			 M704.8,410.7C704.8,410.7,704.8,410.7,704.8,410.7C704.8,410.7,704.8,410.7,704.8,410.7z M704.7,410.7
			C704.7,410.7,704.7,410.7,704.7,410.7C704.7,410.7,704.7,410.7,704.7,410.7z" class="st0"></path>
	</g>
	<g class="st2">
		<path d="M425.3,531c-24.9-2.8-82.7-11.8-82.7-34.3c0-18,17.6-122.1,37.2-149.2c8.2-11.4,29-23,61.7-34.5
			c23.8-8.3,44.9-13.5,45.8-13.7l2.9,12.1c-23.3,5.6-86.7,24.4-100.4,43.3C373.2,377.9,355,477.4,355,496.7
			c0,7.1,34.8,17.8,71.7,21.9L425.3,531z" class="st0"></path>
	</g>
	<g class="st2">
		<path d="M545.8,765.8c-92.4,0-117.8-23.7-118.9-24.8l-1.9-1.8l0-2.6c0-2.2-2.1-218.2-4.8-274.9
			c-1.4-28.5-5.6-41.4-8.9-47.2c-1.5-2.6-2.6-3.5-3-3.7c-2.9-0.4-5.3-2.8-5.4-5.9c-0.2-3.4,2.5-6.4,5.9-6.5
			c6.3-0.3,21.1,5.2,23.9,62.8c2.6,53.3,4.6,245.8,4.8,272.4c7.4,4.9,38.3,21.4,119.8,19.7c3.4,0,6.3,2.7,6.4,6.1
			c0.1,3.4-2.7,6.3-6.1,6.4C553.5,765.7,549.6,765.8,545.8,765.8z" class="st0"></path>
	</g>
	<g class="st2">
		<path d="M555.2,351l-0.2-12.5c33.7-0.4,42.8-7.3,53.3-15.1c1.3-1,2.6-1.9,3.9-2.9c4.3-3.1,6.8-6.4,7.9-8.5
			c-0.8,0.1-2,0.4-3.4,0.8c-18.8,5.9-58.5,7.2-60.2,7.3l-0.4-12.5c0.4,0,39.6-1.3,56.8-6.7c12.9-4,17.6,0.9,19.3,4.2
			c4,7.9-3.4,18.8-12.7,25.5c-1.3,0.9-2.5,1.9-3.8,2.8C604.1,342.1,593,350.5,555.2,351z" class="st0"></path>
	</g>
	<g class="st2">
		<path d="M559,351c-37.8-0.5-48.9-8.8-60.6-17.6c-1.2-0.9-2.5-1.9-3.8-2.8c-9.3-6.7-16.7-17.6-12.7-25.5
			c1.7-3.3,6.4-8.3,19.3-4.2c17.2,5.4,56.4,6.7,56.8,6.7l-0.4,12.5c-1.7-0.1-41.4-1.4-60.2-7.3c-1.4-0.5-2.6-0.7-3.4-0.8
			c1.1,2.2,3.6,5.5,7.9,8.5c1.4,1,2.7,2,3.9,2.9c10.5,7.9,19.6,14.7,53.3,15.1L559,351z" class="st0"></path>
	</g>
	<g class="st2">
		<path d="M681.5,461.6c-3-72.4-72.6-123.3-73.3-123.8l7.3-10.1c3.1,2.2,75.3,55,78.5,133.4L681.5,461.6z" class="st0"></path>
	</g>
	<g class="st2">
		<path d="M433,461.6l-12.5-0.5c3.2-78.4,75.4-131.2,78.5-133.4l7.3,10.1C505.6,338.3,435.9,389.4,433,461.6z" class="st0"></path>
	</g>
	<g class="st2">
		<g id="Logo_10_">
			<g>
				<path d="M620.2,428.9c-2.5,0-4.8,0.2-7.2,0.3c-6.2,0.5-12.3,1.6-18.4,3.1l5.3,6.1c4.1-0.9,8.1-1.6,12.2-1.9
					c-1.9,7.5-6.1,14.1-12.2,18.6v8.6c10.3-5.8,17.5-15.9,19.7-27.7C620.1,433.7,620.2,431.2,620.2,428.9z" class="st0"></path>
			</g>
			<g>
				<path d="M648.7,432.3c-6.1-1.6-12.2-2.7-18.4-3.1c-2.3-0.2-4.8-0.3-7.2-0.3c0,2.5,0.2,4.8,0.6,7.2
					c2.2,11.7,9.4,21.7,19.7,27.7v-8.6c-6.1-4.5-10.3-11.1-12.2-18.6c4.1,0.3,8.1,1.1,12.2,1.9L648.7,432.3z" class="st0"></path>
			</g>
			<g>
				<polygon points="618.3,463.9 624.9,456.4 624.9,448.4 618.3,448.4" class="st0"></polygon>
			</g>
		</g>
	</g>
	<g class="st2">
		<path d="M566.5,741.9c-19.2,0-37.2-1.1-52.9-2.7c-50.2-4.9-86.5-14.8-88-15.2l3.3-12.1c0.4,0.1,37,10,86.2,14.8
			c45.1,4.4,110.3,5.4,164.7-15.2l4.4,11.7C646.6,737.5,604.3,741.9,566.5,741.9z" class="st0"></path>
	</g>
	<g class="st2">
		<path d="M687.2,512l-0.9-12.5c53.2-3.9,72.5-21.5,72.6-21.7l8.7,9C766.7,487.7,745.5,507.8,687.2,512z" class="st0"></path>
	</g>
	<g class="st2">
		<path d="M427.1,512c-58.3-4.3-79.5-24.3-80.4-25.2l8.7-9c0.2,0.2,19.5,17.8,72.6,21.7L427.1,512z" class="st0"></path>
	</g>
	<g class="st2">
		<path d="M466.3,314" class="st3"></path>
	</g>
</g>
<g class="st1">
	<g class="st2">
		<g id="Logo_9_">
			<g>
				<path d="M641.9,449.1c-2.5,0-4.8,0.2-7.2,0.3c-6.2,0.5-12.3,1.6-18.4,3.1l5.3,6.1c4.1-0.9,8.1-1.6,12.2-1.9
					c-1.9,7.5-6.1,14.1-12.2,18.6v8.6c10.3-5.8,17.5-15.9,19.7-27.7C641.8,454,641.9,451.5,641.9,449.1z" class="st0"></path>
			</g>
			<g>
				<path d="M670.3,452.6c-6.1-1.6-12.2-2.7-18.4-3.1c-2.3-0.2-4.8-0.3-7.2-0.3c0,2.5,0.2,4.8,0.6,7.2
					c2.2,11.7,9.4,21.7,19.7,27.7v-8.6c-6.1-4.5-10.3-11.1-12.2-18.6c4.1,0.3,8.1,1.1,12.2,1.9L670.3,452.6z" class="st0"></path>
			</g>
			<g>
				<polygon points="640,484.1 646.6,476.6 646.6,468.7 640,468.7" class="st0"></polygon>
			</g>
		</g>
	</g>
	<g class="st2">
		<g>
			<path d="M772,709.5c-0.2-2-19.1-197.5-25-254.5l-3.1-30.9c0-3.9-1.1-31.2-26.1-48.5c-20.6-14.3-40.2-21.5-46.6-23.6
				c-1.2-0.4-1.9-0.6-2.1-0.7l-3.5,12c0,0,0.4,0.1,1,0.3c4.6,1.5,24,8.2,44,22.2c20.8,14.5,20.8,37.5,20.7,38.5v0.4l3.2,31.6
				c5.8,57,24.8,252.5,25,254.5c1.4,12.7-0.2,32-6.5,33.4c-15.2,3.5-30.6,5.4-33.1,5.7h0c-2.5-0.2-9.3-5.2-12-26.5
				c-1.7-13.1-14.6-184.6-16-202.3c0,0,0,0,0-0.1c-0.1-0.8-0.1-1.3-0.1-1.4l-12.5,0.9c0.3,3.9,3.9,51.9,7.7,100.5
				c3.7,48.2,7.6,96.9,8.5,103.9c1.9,14.9,5.9,25.6,12.1,31.7c0.7,0.7,1.5,1.4,2.2,2c4.2,3.3,8.2,3.8,10.1,3.8c0.5,0,0.8-0.1,1-0.1
				h0.1c0.7-0.1,17.4-2,34.5-5.9c0.1,0,0.1,0,0.2,0c5.1-1.2,8.7-4.4,11.1-8.7C774.2,735.5,772.5,714.7,772,709.5z" class="st0"></path>
		</g>
		<g>
			<path d="M562.3,791.3c-3.4,0-6.2-2.8-6.2-6.2c0-3.4,2.7-6.3,6.2-6.3c52.4-0.5,71.5-3,84.3-6.5
				c18-5,24.1-14.4,25.6-17.3c0.2-12.3,1.7-106.7,3.6-183.3c1.9-76.9,14.9-95.7,16.4-97.6c2.1-2.7,6.1-3.2,8.8-1.1
				c2.7,2.1,3.2,5.9,1.2,8.6c-0.4,0.6-12.1,18.8-13.9,90.3c-2.1,81.6-3.6,183.5-3.6,184.5l0,1.1l-0.4,1c-0.3,0.7-6.9,18-34.4,25.7
				C635.8,788.2,616.3,790.8,562.3,791.3C562.3,791.3,562.3,791.3,562.3,791.3z" class="st0"></path>
		</g>
		<g>
			<path d="M727.4,786.4c-10.9,0-15.8-6.5-16.9-10.6l-0.2-0.8l-2.9-19.6l12.4-1.8l2.7,18.7c0.4,0.6,2,2,6.6,1.5
				c10.5-1,25.3-5.7,25.4-5.7l0.8-0.2c1.7-0.4,1.6-1.6,1.5-3c-1.1-8.4-2.8-19.3-2.8-19.4l12.3-2c0.1,0.5,1.8,11.2,2.9,19.8
				c1.3,10.4-5.9,15.6-11.3,16.8c-2.4,0.8-16.7,5-27.6,6.1C729.4,786.4,728.4,786.4,727.4,786.4z" class="st0"></path>
		</g>
		<g>
			<g>
				<path d="M395.6,456.2l3.1-31.2l0-0.4v-0.3c0-1.1,0-24.1,20.7-38.5c17.6-12.2,34.8-19,41.8-21.5
					c2.1-0.7,3.2-1.1,3.3-1.1l-3.6-12c-0.3,0.1-2.1,0.6-5.1,1.7c-8.3,3-25.5,10.1-43.5,22.6c-25,17.4-26.1,44.6-26.1,48.5l-3.1,30.9
					c-5.8,57-24.8,252.6-25,254.5c-0.6,5.2-2.2,26,5,38.3c2.5,4.3,6.1,7.5,11.2,8.7c0.1,0,0.1,0,0.2,0c17.1,3.9,33.8,5.9,34.3,5.9
					c0.1,0,0.1,0,0.2,0c0.3,0,0.6,0.1,1,0.1c2,0,5.9-0.5,10.2-3.7c0.8-0.6,1.5-1.3,2.2-2c6.2-6.2,10.2-16.8,12.1-31.7
					c0.9-7,4.7-55.7,8.5-103.9c3.8-48.6,7.4-96.6,7.7-100.5l-12.5-0.9c0,0.1,0,0.5-0.1,1.3v0.1c-1.3,17.7-14.4,189.2-16,202.3
					c-2.7,21.3-9.5,26.4-12,26.5h0c-1.9-0.2-17.5-2.1-33-5.7c-6.3-1.4-7.9-20.7-6.5-33.5C370.8,708.7,389.8,513.2,395.6,456.2z" class="st0"></path>
			</g>
			<g>
				<path d="M567.9,791.3C567.9,791.3,567.9,791.3,567.9,791.3c-54-0.5-73.5-3.1-87.6-7c-27.4-7.7-34.1-25-34.4-25.7
					l-0.4-1l0-1.1c0-1-1.6-102.9-3.6-184.5c-1.8-72.3-13.7-90.1-13.9-90.3c-2.1-2.7-1.6-6.6,1.1-8.7c2.7-2.1,6.7-1.6,8.8,1.1
					c1.5,1.9,14.5,20.7,16.4,97.6c1.9,76.6,3.4,171.2,3.6,183.3c1.5,2.7,7.6,12.2,25.6,17.2c12.7,3.6,31.9,6,84.3,6.5
					c3.4,0,6.2,2.9,6.2,6.3C574.1,788.5,571.4,791.3,567.9,791.3z" class="st0"></path>
			</g>
			<g>
				<path d="M402.8,786.4c-0.9,0-1.9,0-2.9-0.1c-10.9-1.1-25.2-5.4-27.6-6.1c-5.4-1.2-12.6-6.4-11.3-16.8
					c1.1-8.6,2.8-19.4,2.9-19.8l12.3,2c0,0.1-1.8,11-2.8,19.4c-0.2,1.3-0.2,2.6,1.6,3l0.7,0.2c0.1,0,15,4.7,25.4,5.7
					c4.6,0.4,6.2-1,6.5-1.4l2.8-18.9l12.4,1.8l-3,20.4C418.5,780,413.7,786.4,402.8,786.4z" class="st0"></path>
			</g>
		</g>
		<g>
			<path d="M671.3,351.1c0,0.3,0,0.5,0,0.8c-0.1,5.4-1.9,9-4.6,11.7c-2.7,2.7-6.4,4.5-10.3,6.5
				c-1.1,0.5-2.3,1.1-3.5,1.8c-5.8,3-29.7,11-51.1,18c-4.3,1.4-8.6,2.7-12.5,4c-11.8,3.8-21.3,6.7-23.9,7.6l-0.1-0.3l-0.3-0.9
				l-0.3-1.1l-1.5-4.9l-0.1-0.2l-1.4-4.5c0.5-0.2,1-0.3,1.5-0.5c1.3-0.4,2.7-0.9,4.2-1.3c15.5-4.9,34.2-10.9,49.7-16.1
				c14.8-4.9,26.7-9.2,30-10.9c1.3-0.7,2.5-1.3,3.7-1.9c8-4,8-4.3,8-7.8c0-3.3-1.2-10.8-2.5-18.5c-1.3-7.5-2.8-15.1-3.7-19.1
				l-0.1-0.6c0,0-0.1-0.2-0.3-0.7c-0.7-1.8-3.7-6.9-13.5-12.3c-12-6.7-34.2-13.7-75.2-15.6c-0.7,0-1.3-0.1-2-0.1l0.5-11.8
				c0.9,0,1.9,0,2.9,0c3.9,0,8.1,0.1,12.1,0.3h0.2c78.9,6.5,86.7,33.7,87.5,38.4C665.7,315,671.3,342.1,671.3,351.1z" class="st0"></path>
		</g>
		<g>
			<path d="M561.3,400.5l-4.5-11.6c86.9-33.9,95.7-77.4,95.8-77.9l12.3,2.2C664.5,315.3,654.7,364.1,561.3,400.5z" class="st0"></path>
		</g>
		<g>
			<g>
				<path d="M563.2,389c0.5,0.2,1,0.3,1.5,0.5l-1.5,4.6l0,0.1l-1.5,4.7l-0.5,1.4l-0.3,0.8l-0.1,0.3
					c-2.7-0.8-12.5-4-24.7-7.9c-4-1.3-8.2-2.7-12.5-4.1c-20.9-6.8-43.7-14.6-49.5-17.6c-1.3-0.7-2.4-1.2-3.5-1.8
					c-3.5-1.8-6.9-3.4-9.5-5.7c-3-2.6-5-6-5.4-11.4c-0.1-0.6-0.1-1.2-0.1-1.8c0-8.9,5.7-36.1,6.5-40c0.8-4.7,8.5-31.8,86.8-38.4
					c0.1,0,0.2,0,0.3,0c3.2-0.1,7.7-0.3,12.8-0.3c0.9,0,1.9,0,2.9,0l0.5,11.8c-0.7,0-1.3,0.1-2,0.1c-74,3.5-86.8,23.7-88.7,28
					c-0.2,0.5-0.3,0.8-0.3,0.8c-0.9,4.2-2.4,11.9-3.8,19.4c-1.3,7.7-2.5,15.2-2.5,18.5c0,3.5,0,3.8,8,7.8c1.2,0.6,2.4,1.2,3.7,1.9
					c3.4,1.8,15.4,6.1,30.3,11.1c0,0,0,0,0.1,0c15.4,5.2,33.9,11.2,49.1,16C560.8,388.3,562,388.7,563.2,389z" class="st0"></path>
			</g>
			<g>
				<path d="M565.8,400.5c-93.4-36.4-103.2-85.2-103.5-87.3l12.3-2.2l-6.1,1.1l6.1-1.2c0,0.1,2.3,11.1,15.1,26
					c11.9,14,35.6,34.3,80.7,51.9L565.8,400.5z" class="st0"></path>
			</g>
		</g>
		<g>
			<path d="M647.5,329.5c-93.1-45.3-166-0.8-166.7-0.3l-6.6-10.6c3.2-2,79.5-48.6,178.8-0.3L647.5,329.5z" class="st0"></path>
		</g>
		<g>
			<path d="M595.6,543c-3.4,0-6.2-2.8-6.2-6.2V385.8c0-3.4,2.8-6.2,6.2-6.2s6.2,2.8,6.2,6.2v150.9
				C601.8,540.2,599,543,595.6,543z" class="st0"></path>
		</g>
		<g>
			<path d="M530,543c-3.4,0-6.2-2.8-6.2-6.2V385.8c0-3.4,2.8-6.2,6.2-6.2s6.2,2.8,6.2,6.2v150.9
				C536.3,540.2,533.5,543,530,543z" class="st0"></path>
		</g>
		<g>
			<path d="M567.7,400.7c0,0-4.4,1.3-8.8,0s-1-8.1-1-8.1S572.9,395.5,567.7,400.7z" class="st0"></path>
		</g>
	</g>
</g>
</svg>
